<svg width="836" height="178" viewBox="0 0 836 178" fill="none" xmlns="http://www.w3.org/2000/svg">
<g filter="url(#filter0_ii_474_202)">
<path d="M135.205 70.6644H85.2534L37.863 68.1028L19.9315 88.5959L16.089 118.055L35.3013 151.356L62.1986 157.76L98.0616 160.322L135.205 156.48L158.26 151.356L172.349 128.301L173.63 106.527L165.945 79.6302L135.205 70.6644Z" fill="#E3E3E3"/>
</g>
<g filter="url(#filter1_di_474_202)">
<path d="M64.3059 100.123C60.5001 100.123 57.2368 101.829 54.6019 105.311C51.9671 108.794 50.6711 113.009 50.6711 118.029C50.6711 123.048 52.01 127.346 54.6019 130.791C57.1938 134.236 60.4571 135.986 64.3059 135.986C67.8581 135.986 70.9418 134.243 73.5493 130.798C76.1568 127.353 77.4801 123.101 77.4801 118.036C77.4801 112.972 76.1412 108.756 73.5493 105.319C70.9574 101.881 67.8737 100.123 64.3059 100.123ZM129.673 100.123C125.91 100.123 122.604 101.829 119.969 105.311C117.334 108.794 116.038 113.009 116.038 118.029C116.038 123.048 117.377 127.346 119.969 130.791C122.561 134.236 125.867 135.986 129.673 135.986C133.229 135.986 136.309 134.243 138.96 130.798C141.61 127.353 142.89 123.101 142.89 118.036C142.89 112.972 141.551 108.756 138.96 105.319C136.368 101.881 133.272 100.123 129.673 100.123V100.123Z" fill="black"/>
</g>
<g filter="url(#filter2_di_474_202)">
<path d="M174.726 50.7317C174.683 50.7317 175.852 44.7224 174.85 34.2558C173.931 23.7814 171.734 14.1682 168.13 5.34253C168.13 5.34253 166.291 5.68004 162.785 6.56066C159.279 7.44129 153.548 9.22194 145.713 12.7832C137.992 16.3523 129.853 21.1007 121.38 26.8616C115.618 25.2206 107.02 24.3827 95.5 24.3827C84.5215 24.3827 75.9234 25.2206 69.62 26.8616C51.0057 13.8734 35.4081 6.70032 22.8271 5.34253C19.2404 14.1695 17.0145 23.8357 16.1497 34.3411C15.1484 44.8156 16.3172 50.8597 16.3172 50.8597C6.17244 61.9121 2 77.841 2 90.9922C2 101.164 2.29219 110.366 4.54788 118.536C6.88538 126.648 9.84621 133.278 13.3525 138.375C16.9801 143.53 21.4371 148.053 26.5438 151.763C31.7603 155.674 36.5599 158.49 40.9038 160.255C45.2866 162.102 50.2538 163.448 55.93 164.414C60.1369 165.224 64.3881 165.787 68.6616 166.098C68.6616 166.098 80.3491 166.726 95.5428 166.726C110.737 166.726 122.381 166.098 122.381 166.098C126.654 165.776 130.905 165.209 135.113 164.398C140.247 163.573 145.273 162.178 150.096 160.24C154.44 158.432 159.24 155.658 164.511 151.748C169.615 148.043 174.06 143.513 177.659 138.344C181.165 133.258 184.126 126.617 186.464 118.505C188.801 110.393 189 101.121 189 90.9495C189 78.2173 184.828 62.0789 174.726 50.7317ZM147.428 148.908C135.779 154.413 118.665 156.64 95.9597 156.64H95.0831C72.3743 156.64 55.2599 154.456 43.8257 148.908C32.3914 143.36 26.5866 132.052 26.5866 114.99C26.5866 104.78 30.1747 96.501 37.23 90.162C40.3194 87.4464 44.075 85.5377 48.75 84.405C53.425 83.2722 57.6832 83.2411 61.6881 83.3536C65.6151 83.5204 71.1238 84.2769 78.0934 84.8239C85.0631 85.3709 90.3224 86.0847 95.5428 86.0847C100.424 86.0847 106.895 85.2429 117.289 84.405C127.683 83.567 135.448 83.1441 140.454 83.9821C145.589 84.8239 150.057 86.5891 153.856 90.162C161.242 96.801 164.943 105.077 164.959 114.99C164.916 132.052 159.029 143.403 147.428 148.908Z" fill="black"/>
</g>
<path d="M271.758 135.314C264.675 135.314 258.531 133.864 253.326 130.962C248.12 127.976 244.067 123.922 241.166 118.802C238.35 113.597 236.942 107.666 236.942 101.01C236.942 93.5011 238.435 87.1011 241.422 81.8104C244.494 76.4344 248.462 72.3384 253.326 69.5224C258.19 66.6211 263.352 65.1704 268.814 65.1704C272.995 65.1704 276.963 66.0238 280.718 67.7304C284.472 69.3518 287.8 71.6558 290.702 74.6424C293.688 77.5438 296.035 80.9998 297.742 85.0104C299.448 88.9358 300.344 93.2451 300.43 97.9384C300.344 99.6451 299.662 101.053 298.382 102.162C297.102 103.272 295.608 103.826 293.902 103.826H244.11L241.038 92.9464H289.166L286.734 95.2504V92.0504C286.563 89.0638 285.582 86.4611 283.79 84.2424C281.998 81.9384 279.779 80.1891 277.134 78.9944C274.488 77.7144 271.715 77.0744 268.814 77.0744C266.254 77.0744 263.779 77.5011 261.39 78.3544C259.086 79.1224 256.995 80.4024 255.118 82.1944C253.326 83.9864 251.875 86.3758 250.766 89.3624C249.742 92.2638 249.23 95.8904 249.23 100.242C249.23 104.936 250.211 109.032 252.174 112.53C254.136 116.029 256.782 118.76 260.11 120.722C263.438 122.6 267.107 123.538 271.118 123.538C274.275 123.538 276.878 123.24 278.926 122.642C280.974 121.96 282.68 121.149 284.046 120.21C285.411 119.272 286.606 118.376 287.63 117.522C288.91 116.754 290.19 116.37 291.47 116.37C293.006 116.37 294.286 116.925 295.31 118.034C296.334 119.058 296.846 120.296 296.846 121.746C296.846 123.624 295.907 125.33 294.03 126.866C291.726 129.085 288.526 131.048 284.43 132.754C280.419 134.461 276.195 135.314 271.758 135.314ZM315.809 66.0664C317.089 66.0664 318.283 66.4078 319.393 67.0904C320.587 67.7731 321.441 68.7971 321.953 70.1624L342.049 116.626L339.617 117.778L359.969 70.2904C361.163 67.4744 363.083 66.1091 365.729 66.1944C367.435 66.1944 368.843 66.7491 369.952 67.8584C371.147 68.8824 371.745 70.2478 371.745 71.9544C371.745 72.4664 371.659 73.0211 371.489 73.6184C371.318 74.1304 371.105 74.6424 370.849 75.1544L346.529 129.938C345.419 132.498 343.585 133.864 341.025 134.034C339.745 134.205 338.465 133.949 337.185 133.266C335.99 132.498 335.051 131.389 334.369 129.938L310.177 75.1544C310.006 74.8131 309.835 74.3864 309.665 73.8744C309.494 73.2771 309.409 72.5944 309.409 71.8264C309.409 70.5464 309.963 69.2664 311.073 67.9864C312.267 66.7064 313.846 66.0664 315.809 66.0664ZM448.66 100.37C448.66 107.197 447.166 113.256 444.18 118.546C441.193 123.752 437.14 127.848 432.02 130.834C426.9 133.821 421.14 135.314 414.74 135.314C408.34 135.314 402.58 133.821 397.46 130.834C392.34 127.848 388.244 123.752 385.172 118.546C382.185 113.256 380.692 107.197 380.692 100.37C380.692 93.4584 382.185 87.3998 385.172 82.1944C388.244 76.9038 392.34 72.7651 397.46 69.7784C402.58 66.7064 408.34 65.1704 414.74 65.1704C421.14 65.1704 426.9 66.7064 432.02 69.7784C437.14 72.7651 441.193 76.9038 444.18 82.1944C447.166 87.3998 448.66 93.4584 448.66 100.37ZM435.86 100.37C435.86 95.6771 434.921 91.6238 433.044 88.2104C431.166 84.7118 428.606 81.9811 425.364 80.0184C422.206 77.9704 418.665 76.9464 414.74 76.9464C410.814 76.9464 407.23 77.9704 403.988 80.0184C400.745 81.9811 398.185 84.7118 396.308 88.2104C394.43 91.6238 393.492 95.6771 393.492 100.37C393.492 104.893 394.43 108.904 396.308 112.402C398.185 115.901 400.745 118.632 403.988 120.594C407.23 122.557 410.814 123.538 414.74 123.538C418.665 123.538 422.206 122.557 425.364 120.594C428.606 118.632 431.166 115.901 433.044 112.402C434.921 108.904 435.86 104.893 435.86 100.37ZM518.316 65.6824C520.193 65.6824 521.729 66.3224 522.924 67.6024C524.118 68.7971 524.715 70.3331 524.715 72.2104V127.506C524.715 129.384 524.118 130.962 522.924 132.242C521.729 133.437 520.193 134.034 518.316 134.034C516.524 134.034 514.988 133.437 513.708 132.242C512.513 130.962 511.916 129.384 511.916 127.506V118.29L514.604 118.674C514.604 120.21 513.964 121.917 512.684 123.794C511.489 125.672 509.825 127.506 507.692 129.298C505.558 131.005 503.041 132.456 500.14 133.65C497.238 134.76 494.124 135.314 490.796 135.314C484.908 135.314 479.617 133.821 474.924 130.834C470.23 127.762 466.518 123.581 463.788 118.29C461.057 113 459.692 106.984 459.692 100.242C459.692 93.3304 461.057 87.2718 463.788 82.0664C466.518 76.7758 470.188 72.6371 474.796 69.6504C479.489 66.6638 484.694 65.1704 490.412 65.1704C494.081 65.1704 497.452 65.7678 500.524 66.9624C503.681 68.1571 506.412 69.6931 508.716 71.5704C511.02 73.4478 512.769 75.4531 513.964 77.5864C515.244 79.6344 515.884 81.5971 515.884 83.4744L511.916 83.8584V72.2104C511.916 70.4184 512.513 68.8824 513.708 67.6024C514.988 66.3224 516.524 65.6824 518.316 65.6824ZM492.204 123.538C496.214 123.538 499.756 122.514 502.828 120.466C505.9 118.418 508.289 115.645 509.996 112.146C511.702 108.562 512.556 104.594 512.556 100.242C512.556 95.8051 511.702 91.8371 509.996 88.3384C508.289 84.8398 505.9 82.0664 502.828 80.0184C499.756 77.9704 496.214 76.9464 492.204 76.9464C488.278 76.9464 484.78 77.9704 481.708 80.0184C478.721 82.0664 476.332 84.8398 474.54 88.3384C472.833 91.8371 471.98 95.8051 471.98 100.242C471.98 104.594 472.833 108.562 474.54 112.146C476.332 115.645 478.721 118.418 481.708 120.466C484.78 122.514 488.278 123.538 492.204 123.538ZM554.68 127.506C554.68 129.384 554.082 130.962 552.888 132.242C551.693 133.437 550.157 134.034 548.28 134.034C546.488 134.034 544.952 133.437 543.672 132.242C542.477 130.962 541.88 129.384 541.88 127.506V72.7224C541.88 70.8451 542.477 69.3091 543.672 68.1144C544.952 66.8344 546.488 66.1944 548.28 66.1944C550.157 66.1944 551.693 66.8344 552.888 68.1144C554.082 69.3091 554.68 70.8451 554.68 72.7224V127.506ZM548.152 57.7464C545.677 57.7464 543.885 57.3198 542.776 56.4664C541.666 55.5278 541.112 53.9918 541.112 51.8584V49.8104C541.112 47.6771 541.709 46.1838 542.904 45.3304C544.098 44.4771 545.89 44.0504 548.28 44.0504C550.84 44.0504 552.674 44.5198 553.784 45.4584C554.893 46.3118 555.448 47.7624 555.448 49.8104V51.8584C555.448 54.0771 554.85 55.6131 553.656 56.4664C552.546 57.3198 550.712 57.7464 548.152 57.7464ZM605.69 65.5544C612.004 65.5544 616.868 67.1331 620.282 70.2904C623.695 73.3624 625.956 77.5438 627.066 82.8344L625.018 82.1944L625.914 80.1464C627.023 77.9278 628.687 75.7091 630.906 73.4904C633.21 71.1864 635.94 69.3091 639.098 67.8584C642.255 66.3224 645.626 65.5544 649.21 65.5544C655.098 65.5544 659.663 66.8344 662.906 69.3944C666.148 71.8691 668.41 75.2398 669.69 79.5064C670.97 83.6878 671.61 88.3811 671.61 93.5864V127.506C671.61 129.384 671.012 130.962 669.818 132.242C668.623 133.437 667.087 134.034 665.21 134.034C663.418 134.034 661.882 133.437 660.602 132.242C659.407 130.962 658.81 129.384 658.81 127.506V93.7144C658.81 90.7278 658.383 87.9971 657.53 85.5224C656.762 83.0478 655.354 81.0851 653.306 79.6344C651.343 78.0984 648.612 77.3304 645.114 77.3304C641.786 77.3304 638.799 78.0984 636.154 79.6344C633.594 81.0851 631.588 83.0478 630.138 85.5224C628.687 87.9971 627.962 90.7278 627.962 93.7144V127.506C627.962 129.384 627.364 130.962 626.17 132.242C624.975 133.437 623.439 134.034 621.562 134.034C619.684 134.034 618.148 133.437 616.954 132.242C615.759 130.962 615.162 129.384 615.162 127.506V93.5864C615.162 90.5998 614.735 87.8691 613.882 85.3944C613.114 82.9198 611.748 80.9571 609.786 79.5064C607.823 78.0558 605.092 77.3304 601.594 77.3304C598.266 77.3304 595.322 78.0558 592.762 79.5064C590.202 80.9571 588.196 82.9198 586.746 85.3944C585.38 87.8691 584.698 90.5998 584.698 93.5864V127.506C584.698 129.384 584.058 130.962 582.778 132.242C581.583 133.437 580.09 134.034 578.298 134.034C576.42 134.034 574.884 133.437 573.69 132.242C572.495 130.962 571.898 129.384 571.898 127.506V73.2344C571.898 71.3571 572.495 69.8211 573.69 68.6264C574.884 67.3464 576.42 66.7064 578.298 66.7064C580.09 66.7064 581.583 67.3464 582.778 68.6264C584.058 69.8211 584.698 71.3571 584.698 73.2344V80.7864L582.266 82.1944C582.863 80.3171 583.844 78.3971 585.21 76.4344C586.575 74.4718 588.282 72.6798 590.33 71.0584C592.463 69.4371 594.81 68.1144 597.37 67.0904C599.93 66.0664 602.703 65.5544 605.69 65.5544ZM744.691 65.6824C746.568 65.6824 748.104 66.3224 749.299 67.6024C750.493 68.7971 751.09 70.3331 751.09 72.2104V127.506C751.09 129.384 750.493 130.962 749.299 132.242C748.104 133.437 746.568 134.034 744.691 134.034C742.899 134.034 741.363 133.437 740.083 132.242C738.888 130.962 738.291 129.384 738.291 127.506V118.29L740.979 118.674C740.979 120.21 740.339 121.917 739.059 123.794C737.864 125.672 736.2 127.506 734.067 129.298C731.933 131.005 729.416 132.456 726.515 133.65C723.613 134.76 720.499 135.314 717.171 135.314C711.283 135.314 705.992 133.821 701.299 130.834C696.605 127.762 692.893 123.581 690.163 118.29C687.432 113 686.067 106.984 686.067 100.242C686.067 93.3304 687.432 87.2718 690.163 82.0664C692.893 76.7758 696.563 72.6371 701.171 69.6504C705.864 66.6638 711.069 65.1704 716.787 65.1704C720.456 65.1704 723.827 65.7678 726.899 66.9624C730.056 68.1571 732.787 69.6931 735.091 71.5704C737.395 73.4478 739.144 75.4531 740.339 77.5864C741.619 79.6344 742.259 81.5971 742.259 83.4744L738.291 83.8584V72.2104C738.291 70.4184 738.888 68.8824 740.083 67.6024C741.363 66.3224 742.899 65.6824 744.691 65.6824ZM718.579 123.538C722.589 123.538 726.131 122.514 729.203 120.466C732.275 118.418 734.664 115.645 736.371 112.146C738.077 108.562 738.931 104.594 738.931 100.242C738.931 95.8051 738.077 91.8371 736.371 88.3384C734.664 84.8398 732.275 82.0664 729.203 80.0184C726.131 77.9704 722.589 76.9464 718.579 76.9464C714.653 76.9464 711.155 77.9704 708.083 80.0184C705.096 82.0664 702.707 84.8398 700.915 88.3384C699.208 91.8371 698.355 95.8051 698.355 100.242C698.355 104.594 699.208 108.562 700.915 112.146C702.707 115.645 705.096 118.418 708.083 120.466C711.155 122.514 714.653 123.538 718.579 123.538ZM803.711 65.1704C809.769 65.1704 814.463 66.4504 817.791 69.0104C821.119 71.4851 823.423 74.8558 824.702 79.1224C826.068 83.3038 826.751 87.9971 826.751 93.2024V127.506C826.751 129.384 826.111 130.962 824.831 132.242C823.636 133.437 822.143 134.034 820.351 134.034C818.473 134.034 816.937 133.437 815.743 132.242C814.548 130.962 813.951 129.384 813.951 127.506V93.3304C813.951 90.2584 813.524 87.5278 812.671 85.1384C811.817 82.6638 810.324 80.7011 808.191 79.2504C806.143 77.7144 803.241 76.9464 799.487 76.9464C795.988 76.9464 792.916 77.7144 790.271 79.2504C787.625 80.7011 785.535 82.6638 783.999 85.1384C782.548 87.5278 781.823 90.2584 781.823 93.3304V127.506C781.823 129.384 781.183 130.962 779.903 132.242C778.708 133.437 777.215 134.034 775.423 134.034C773.545 134.034 772.009 133.437 770.815 132.242C769.62 130.962 769.023 129.384 769.023 127.506V73.2344C769.023 71.3571 769.62 69.8211 770.815 68.6264C772.009 67.3464 773.545 66.7064 775.423 66.7064C777.215 66.7064 778.708 67.3464 779.903 68.6264C781.183 69.8211 781.823 71.3571 781.823 73.2344V80.4024L779.519 81.6824C780.116 79.8051 781.14 77.9278 782.591 76.0504C784.127 74.0878 785.961 72.2958 788.095 70.6744C790.228 68.9678 792.617 67.6451 795.263 66.7064C797.908 65.6824 800.724 65.1704 803.711 65.1704Z" fill="white"/>
<defs>
<filter id="filter0_ii_474_202" x="15.089" y="67.1028" width="159.541" height="94.2192" filterUnits="userSpaceOnUse" color-interpolation-filters="sRGB">
<feFlood flood-opacity="0" result="BackgroundImageFix"/>
<feBlend mode="normal" in="SourceGraphic" in2="BackgroundImageFix" result="shape"/>
<feColorMatrix in="SourceAlpha" type="matrix" values="0 0 0 0 0 0 0 0 0 0 0 0 0 0 0 0 0 0 127 0" result="hardAlpha"/>
<feOffset dx="-1" dy="-1"/>
<feGaussianBlur stdDeviation="0.5"/>
<feComposite in2="hardAlpha" operator="arithmetic" k2="-1" k3="1"/>
<feColorMatrix type="matrix" values="0 0 0 0 1 0 0 0 0 1 0 0 0 0 1 0 0 0 0.7 0"/>
<feBlend mode="normal" in2="shape" result="effect1_innerShadow_474_202"/>
<feColorMatrix in="SourceAlpha" type="matrix" values="0 0 0 0 0 0 0 0 0 0 0 0 0 0 0 0 0 0 127 0" result="hardAlpha"/>
<feOffset dx="1" dy="1"/>
<feGaussianBlur stdDeviation="3.5"/>
<feComposite in2="hardAlpha" operator="arithmetic" k2="-1" k3="1"/>
<feColorMatrix type="matrix" values="0 0 0 0 0.682353 0 0 0 0 0.682353 0 0 0 0 0.752941 0 0 0 0.15 0"/>
<feBlend mode="normal" in2="effect1_innerShadow_474_202" result="effect2_innerShadow_474_202"/>
</filter>
<filter id="filter1_di_474_202" x="49.6711" y="98.1233" width="100.219" height="43.863" filterUnits="userSpaceOnUse" color-interpolation-filters="sRGB">
<feFlood flood-opacity="0" result="BackgroundImageFix"/>
<feColorMatrix in="SourceAlpha" type="matrix" values="0 0 0 0 0 0 0 0 0 0 0 0 0 0 0 0 0 0 127 0" result="hardAlpha"/>
<feOffset dx="3" dy="2"/>
<feGaussianBlur stdDeviation="2"/>
<feComposite in2="hardAlpha" operator="out"/>
<feColorMatrix type="matrix" values="0 0 0 0 0 0 0 0 0 0 0 0 0 0 0 0 0 0 0.25 0"/>
<feBlend mode="normal" in2="BackgroundImageFix" result="effect1_dropShadow_474_202"/>
<feBlend mode="normal" in="SourceGraphic" in2="effect1_dropShadow_474_202" result="shape"/>
<feColorMatrix in="SourceAlpha" type="matrix" values="0 0 0 0 0 0 0 0 0 0 0 0 0 0 0 0 0 0 127 0" result="hardAlpha"/>
<feOffset dx="2" dy="3"/>
<feGaussianBlur stdDeviation="2"/>
<feComposite in2="hardAlpha" operator="arithmetic" k2="-1" k3="1"/>
<feColorMatrix type="matrix" values="0 0 0 0 1 0 0 0 0 1 0 0 0 0 1 0 0 0 0.25 0"/>
<feBlend mode="normal" in2="shape" result="effect2_innerShadow_474_202"/>
</filter>
<filter id="filter2_di_474_202" x="0" y="0.342529" width="203" height="177.384" filterUnits="userSpaceOnUse" color-interpolation-filters="sRGB">
<feFlood flood-opacity="0" result="BackgroundImageFix"/>
<feColorMatrix in="SourceAlpha" type="matrix" values="0 0 0 0 0 0 0 0 0 0 0 0 0 0 0 0 0 0 127 0" result="hardAlpha"/>
<feOffset dx="6" dy="3"/>
<feGaussianBlur stdDeviation="4"/>
<feComposite in2="hardAlpha" operator="out"/>
<feColorMatrix type="matrix" values="0 0 0 0 0 0 0 0 0 0 0 0 0 0 0 0 0 0 0.25 0"/>
<feBlend mode="normal" in2="BackgroundImageFix" result="effect1_dropShadow_474_202"/>
<feBlend mode="normal" in="SourceGraphic" in2="effect1_dropShadow_474_202" result="shape"/>
<feColorMatrix in="SourceAlpha" type="matrix" values="0 0 0 0 0 0 0 0 0 0 0 0 0 0 0 0 0 0 127 0" result="hardAlpha"/>
<feOffset dx="8" dy="10"/>
<feGaussianBlur stdDeviation="5"/>
<feComposite in2="hardAlpha" operator="arithmetic" k2="-1" k3="1"/>
<feColorMatrix type="matrix" values="0 0 0 0 0.837028 0 0 0 0 0.837028 0 0 0 0 0.837028 0 0 0 0.2 0"/>
<feBlend mode="normal" in2="shape" result="effect2_innerShadow_474_202"/>
</filter>
</defs>
</svg>
